<?xml version="1.0" encoding="UTF-8" standalone="no"?>
<!DOCTYPE svg PUBLIC "-//W3C//DTD SVG 1.1//EN" "http://www.w3.org/Graphics/SVG/1.1/DTD/svg11.dtd">
<svg width="100%" height="100%" viewBox="0 0 1027 1026" version="1.1" xmlns="http://www.w3.org/2000/svg" xmlns:xlink="http://www.w3.org/1999/xlink" xml:space="preserve" xmlns:serif="http://www.serif.com/" style="fill-rule:evenodd;clip-rule:evenodd;stroke-linecap:round;stroke-linejoin:round;stroke-miterlimit:1.5;">
    <g transform="matrix(1,0,0,1,-1297,-3690)">
        <g id="tarotIcon" transform="matrix(1,0,0,1,1284.66,-0.60823)">
            <rect x="13.09" y="3690.61" width="1025.85" height="1025.85" style="fill:none;"/>
            <g transform="matrix(1,0,0,1,-1615.32,1496.71)">
                <g transform="matrix(0.783057,0,0,0.783057,417.166,1041.43)">
                    <circle cx="2200.85" cy="2126.79" r="603.329" style="fill:none;stroke:rgb(246,217,159);stroke-width:21.28px;"/>
                </g>
                <g transform="matrix(7.28214e-17,1.18926,-1.17226,7.17804e-17,4567.03,-691.942)">
                    <rect x="2619.5" y="1665.56" width="496.569" height="806.032" style="fill:none;stroke:rgb(246,217,159);stroke-width:14.11px;"/>
                </g>
                <g transform="matrix(0.504562,0.504562,-0.518072,0.518072,1755.03,199.96)">
                    <rect x="2619.5" y="1665.56" width="496.569" height="806.032" style="fill:none;stroke:rgb(246,217,159);stroke-width:23.05px;"/>
                </g>
                <g transform="matrix(0.504562,-0.504562,0.518072,0.518072,-388.316,3093.91)">
                    <rect x="2619.5" y="1665.56" width="496.569" height="806.032" style="fill:none;stroke:rgb(246,217,159);stroke-width:23.05px;"/>
                </g>
                <g transform="matrix(-1.18926,1.45643e-16,-1.43561e-16,-1.17226,5540.88,5131.74)">
                    <rect x="2619.5" y="1665.56" width="496.569" height="806.032" style="fill:none;stroke:rgb(246,217,159);stroke-width:14.11px;"/>
                </g>
            </g>
        </g>
    </g>
</svg>
