<?xml version="1.0" encoding="UTF-8" standalone="no"?>
<!DOCTYPE svg PUBLIC "-//W3C//DTD SVG 1.1//EN" "http://www.w3.org/Graphics/SVG/1.1/DTD/svg11.dtd">
<svg width="100%" height="100%" viewBox="0 0 1027 1026" version="1.1" xmlns="http://www.w3.org/2000/svg" xmlns:xlink="http://www.w3.org/1999/xlink" xml:space="preserve" xmlns:serif="http://www.serif.com/" style="fill-rule:evenodd;clip-rule:evenodd;stroke-linecap:round;stroke-linejoin:round;stroke-miterlimit:1.5;">
    <g transform="matrix(1,0,0,1,-2456,-3690)">
        <g id="dreamIcon" transform="matrix(1,0,0,1,2443.45,-0.60823)">
            <rect x="13.09" y="3690.61" width="1025.85" height="1025.85" style="fill:none;"/>
            <g transform="matrix(0.940617,0,0,0.940617,-2972.74,1749.8)">
                <g transform="matrix(1,0,0,1.4346,0,-1146.69)">
                    <path d="M3719.64,2309.15L4048.96,2967.79L3390.32,2967.79L3719.64,2309.15Z" style="fill:none;stroke:rgb(246,217,159);stroke-width:14.33px;"/>
                </g>
                <g transform="matrix(0.783057,0,0,0.783057,1996.25,973.073)">
                    <circle cx="2200.85" cy="2126.79" r="603.329" style="fill:none;stroke:rgb(246,217,159);stroke-width:22.63px;"/>
                </g>
                <g transform="matrix(0.64968,0,0,1,1468.57,-30.9549)">
                    <path d="M3247.2,2605.18L4192.08,2605.18" style="fill:none;stroke:rgb(246,217,159);stroke-width:21.01px;"/>
                </g>
                <g transform="matrix(0.693361,0,0,1,1004.8,114.469)">
                    <path d="M3247.2,2605.18L4192.08,2605.18" style="fill:none;stroke:rgb(246,217,159);stroke-width:20.59px;"/>
                </g>
                <g transform="matrix(-1,-1.22465e-16,1.22465e-16,-1,7439.28,4388.75)">
                    <path d="M3719.64,2049.67L3867.48,2282.38L3571.8,2282.38L3719.64,2049.67Z" style="fill:none;stroke:rgb(246,217,159);stroke-width:17.72px;"/>
                </g>
            </g>
        </g>
    </g>
</svg>
