<?xml version="1.0" encoding="UTF-8" standalone="no"?><!DOCTYPE svg PUBLIC "-//W3C//DTD SVG 1.1//EN" "http://www.w3.org/Graphics/SVG/1.1/DTD/svg11.dtd"><svg width="100%" height="100%" viewBox="0 0 247 247" version="1.1" xmlns="http://www.w3.org/2000/svg" xmlns:xlink="http://www.w3.org/1999/xlink" xml:space="preserve" xmlns:serif="http://www.serif.com/" style="fill-rule:evenodd;clip-rule:evenodd;stroke-linecap:round;stroke-linejoin:round;stroke-miterlimit:1.5;"><rect id="natalIcon" x="0.113" y="0" width="246.204" height="246.204" style="fill:none;"/><g><circle cx="123.215" cy="123.102" r="106.653" style="fill:none;stroke:#f6d99f;stroke-width:4px;"/><circle cx="123.215" cy="123.102" r="106.653" style="fill:none;stroke:#f6d99f;stroke-width:4px;"/><path d="M123.215,21.762l19.093,30.084l31.577,-16.507l1.493,35.6l35.6,1.493l-16.507,31.577l30.084,19.093l-30.084,19.093l16.507,31.577l-35.6,1.493l-1.493,35.6l-31.577,-16.507l-19.093,30.084l-19.093,-30.084l-31.577,16.507l-1.493,-35.6l-35.6,-1.493l16.507,-31.577l-30.084,-19.093l30.084,-19.093l-16.507,-31.577l35.6,-1.493l1.493,-35.6l31.577,16.507l19.093,-30.084Z" style="fill:none;stroke:#f6d99f;stroke-width:4px;stroke-linejoin:miter;"/><rect x="73.361" y="69.919" width="102.705" height="104.702" style="fill:none;stroke:#f6d99f;stroke-width:4px;stroke-linejoin:miter;"/><path d="M176.066,122.27l-102.705,52.85l-0,-105.701l102.705,52.851Z" style="fill:none;stroke:#f6d99f;stroke-width:4px;stroke-linejoin:miter;"/><path d="M104.76,194.585l38.619,-143.82" style="fill:none;stroke:#f6d99f;stroke-width:4px;stroke-linejoin:miter;"/></g></svg>